<svg width="80" height="80" viewBox="0 0 80 80" fill="none" xmlns="http://www.w3.org/2000/svg">
<path d="M51.0001 55.6667L55.6667 51L43.3334 38.6667V23.3333H36.6667V41.3333L51.0001 55.6667ZM40.0001 73.3333C35.389 73.3333 31.0556 72.4583 27.0001 70.7083C22.9445 68.9583 19.4167 66.5833 16.4167 63.5833C13.4167 60.5833 11.0417 57.0556 9.29175 53C7.54175 48.9444 6.66675 44.6111 6.66675 40C6.66675 35.3889 7.54175 31.0556 9.29175 27C11.0417 22.9444 13.4167 19.4167 16.4167 16.4167C19.4167 13.4167 22.9445 11.0417 27.0001 9.29166C31.0556 7.54166 35.389 6.66666 40.0001 6.66666C44.6112 6.66666 48.9445 7.54166 53.0001 9.29166C57.0556 11.0417 60.5834 13.4167 63.5834 16.4167C66.5834 19.4167 68.9584 22.9444 70.7084 27C72.4584 31.0556 73.3334 35.3889 73.3334 40C73.3334 44.6111 72.4584 48.9444 70.7084 53C68.9584 57.0556 66.5834 60.5833 63.5834 63.5833C60.5834 66.5833 57.0556 68.9583 53.0001 70.7083C48.9445 72.4583 44.6112 73.3333 40.0001 73.3333ZM40.0001 66.6667C47.389 66.6667 53.6806 64.0694 58.8751 58.875C64.0695 53.6806 66.6668 47.3889 66.6668 40C66.6668 32.6111 64.0695 26.3194 58.8751 21.125C53.6806 15.9306 47.389 13.3333 40.0001 13.3333C32.6112 13.3333 26.3195 15.9306 21.1251 21.125C15.9306 26.3194 13.3334 32.6111 13.3334 40C13.3334 47.3889 15.9306 53.6806 21.1251 58.875C26.3195 64.0694 32.6112 66.6667 40.0001 66.6667Z" fill="#1D1B20"/>
</svg>
